<svg width="161" height="163" viewBox="0 0 161 163" fill="none" xmlns="http://www.w3.org/2000/svg">
<ellipse cx="79.7822" cy="77.9959" rx="77.7822" ry="77.9958" fill="#15082F"/>
<g filter="url(#filter0_d_0_1)">
<ellipse cx="80.4745" cy="76.624" rx="57.4745" ry="57.6324" fill="white"/>
</g>
<path d="M69.76 91.35C67.8233 91.35 66.0733 90.86 64.51 89.88C62.97 88.9 61.7567 87.4767 60.87 85.61C59.9833 83.72 59.54 81.4333 59.54 78.75C59.54 76.0667 59.9833 73.7917 60.87 71.925C61.7567 70.035 62.97 68.6 64.51 67.62C66.0733 66.64 67.8233 66.15 69.76 66.15C71.72 66.15 73.47 66.64 75.01 67.62C76.55 68.6 77.7633 70.035 78.65 71.925C79.56 73.7917 80.015 76.0667 80.015 78.75C80.015 81.4333 79.56 83.72 78.65 85.61C77.7633 87.4767 76.55 88.9 75.01 89.88C73.47 90.86 71.72 91.35 69.76 91.35ZM69.76 87.395C70.9033 87.395 71.895 87.0917 72.735 86.485C73.575 85.855 74.2283 84.8983 74.695 83.615C75.185 82.3317 75.43 80.71 75.43 78.75C75.43 76.7667 75.185 75.145 74.695 73.885C74.2283 72.6017 73.575 71.6567 72.735 71.05C71.895 70.42 70.9033 70.105 69.76 70.105C68.6633 70.105 67.6833 70.42 66.82 71.05C65.98 71.6567 65.315 72.6017 64.825 73.885C64.3583 75.145 64.125 76.7667 64.125 78.75C64.125 80.71 64.3583 82.3317 64.825 83.615C65.315 84.8983 65.98 85.855 66.82 86.485C67.6833 87.0917 68.6633 87.395 69.76 87.395ZM82.7406 91V87.955L92.4706 78.715C93.2873 77.945 93.894 77.2683 94.2906 76.685C94.6873 76.1017 94.944 75.565 95.0606 75.075C95.2006 74.5617 95.2706 74.0833 95.2706 73.64C95.2706 72.52 94.8856 71.6567 94.1156 71.05C93.3456 70.42 92.214 70.105 90.7206 70.105C89.5306 70.105 88.4456 70.315 87.4656 70.735C86.509 71.155 85.6806 71.7967 84.9806 72.66L81.7956 70.21C82.7523 68.9267 84.0356 67.935 85.6456 67.235C87.279 66.5117 89.099 66.15 91.1056 66.15C92.879 66.15 94.419 66.4417 95.7256 67.025C97.0556 67.585 98.0706 68.39 98.7706 69.44C99.494 70.49 99.8556 71.7383 99.8556 73.185C99.8556 73.9783 99.7506 74.7717 99.5406 75.565C99.3306 76.335 98.934 77.1517 98.3506 78.015C97.7673 78.8783 96.9156 79.8467 95.7956 80.92L87.4306 88.865L86.4856 87.15H100.801V91H82.7406Z" fill="#A020F0"/>
<defs>
<filter id="filter0_d_0_1" x="0.38102" y="2.40439" width="160.187" height="160.503" filterUnits="userSpaceOnUse" color-interpolation-filters="sRGB">
<feFlood flood-opacity="0" result="BackgroundImageFix"/>
<feColorMatrix in="SourceAlpha" type="matrix" values="0 0 0 0 0 0 0 0 0 0 0 0 0 0 0 0 0 0 127 0" result="hardAlpha"/>
<feOffset dy="6.03173"/>
<feGaussianBlur stdDeviation="11.3095"/>
<feComposite in2="hardAlpha" operator="out"/>
<feColorMatrix type="matrix" values="0 0 0 0 0.790125 0 0 0 0 0.695833 0 0 0 0 1 0 0 0 0.35 0"/>
<feBlend mode="normal" in2="BackgroundImageFix" result="effect1_dropShadow_0_1"/>
<feBlend mode="normal" in="SourceGraphic" in2="effect1_dropShadow_0_1" result="shape"/>
</filter>
</defs>
</svg>
