<svg width="156" height="156" viewBox="0 0 156 156" fill="none" xmlns="http://www.w3.org/2000/svg">
<ellipse cx="77.7822" cy="77.9959" rx="77.7822" ry="77.9958" fill="#15082F"/>
<ellipse cx="78.4745" cy="76.624" rx="57.4745" ry="57.6324" fill="white"/>
<path d="M70.76 91.35C68.8233 91.35 67.0733 90.86 65.51 89.88C63.97 88.9 62.7567 87.4767 61.87 85.61C60.9833 83.72 60.54 81.4333 60.54 78.75C60.54 76.0667 60.9833 73.7917 61.87 71.925C62.7567 70.035 63.97 68.6 65.51 67.62C67.0733 66.64 68.8233 66.15 70.76 66.15C72.72 66.15 74.47 66.64 76.01 67.62C77.55 68.6 78.7633 70.035 79.65 71.925C80.56 73.7917 81.015 76.0667 81.015 78.75C81.015 81.4333 80.56 83.72 79.65 85.61C78.7633 87.4767 77.55 88.9 76.01 89.88C74.47 90.86 72.72 91.35 70.76 91.35ZM70.76 87.395C71.9033 87.395 72.895 87.0917 73.735 86.485C74.575 85.855 75.2283 84.8983 75.695 83.615C76.185 82.3317 76.43 80.71 76.43 78.75C76.43 76.7667 76.185 75.145 75.695 73.885C75.2283 72.6017 74.575 71.6567 73.735 71.05C72.895 70.42 71.9033 70.105 70.76 70.105C69.6633 70.105 68.6833 70.42 67.82 71.05C66.98 71.6567 66.315 72.6017 65.825 73.885C65.3583 75.145 65.125 76.7667 65.125 78.75C65.125 80.71 65.3583 82.3317 65.825 83.615C66.315 84.8983 66.98 85.855 67.82 86.485C68.6833 87.0917 69.6633 87.395 70.76 87.395ZM87.9756 91V68.25L89.9706 70.315H82.7956V66.5H92.5256V91H87.9756Z" fill="#A020F0"/>
</svg>
