<svg width="156" height="156" viewBox="0 0 156 156" fill="none" xmlns="http://www.w3.org/2000/svg">
<ellipse cx="77.7822" cy="77.9959" rx="77.7822" ry="77.9958" fill="#15082F"/>
<ellipse cx="78.4745" cy="76.624" rx="57.4745" ry="57.6324" fill="white"/>
<path d="M67.76 91.35C65.8233 91.35 64.0733 90.86 62.51 89.88C60.97 88.9 59.7567 87.4767 58.87 85.61C57.9833 83.72 57.54 81.4333 57.54 78.75C57.54 76.0667 57.9833 73.7917 58.87 71.925C59.7567 70.035 60.97 68.6 62.51 67.62C64.0733 66.64 65.8233 66.15 67.76 66.15C69.72 66.15 71.47 66.64 73.01 67.62C74.55 68.6 75.7633 70.035 76.65 71.925C77.56 73.7917 78.015 76.0667 78.015 78.75C78.015 81.4333 77.56 83.72 76.65 85.61C75.7633 87.4767 74.55 88.9 73.01 89.88C71.47 90.86 69.72 91.35 67.76 91.35ZM67.76 87.395C68.9033 87.395 69.895 87.0917 70.735 86.485C71.575 85.855 72.2283 84.8983 72.695 83.615C73.185 82.3317 73.43 80.71 73.43 78.75C73.43 76.7667 73.185 75.145 72.695 73.885C72.2283 72.6017 71.575 71.6567 70.735 71.05C69.895 70.42 68.9033 70.105 67.76 70.105C66.6633 70.105 65.6833 70.42 64.82 71.05C63.98 71.6567 63.315 72.6017 62.825 73.885C62.3583 75.145 62.125 76.7667 62.125 78.75C62.125 80.71 62.3583 82.3317 62.825 83.615C63.315 84.8983 63.98 85.855 64.82 86.485C65.6833 87.0917 66.6633 87.395 67.76 87.395ZM88.448 91.35C86.7213 91.35 85.0297 91.105 83.373 90.615C81.7397 90.1017 80.363 89.4017 79.243 88.515L81.203 84.98C82.0897 85.7033 83.163 86.2867 84.423 86.73C85.683 87.1733 87.0013 87.395 88.378 87.395C90.0113 87.395 91.283 87.0683 92.193 86.415C93.103 85.7383 93.558 84.8283 93.558 83.685C93.558 82.565 93.138 81.6783 92.298 81.025C91.458 80.3717 90.1047 80.045 88.238 80.045H85.998V76.93L92.998 68.6L93.593 70.315H80.433V66.5H97.128V69.545L90.128 77.875L87.748 76.475H89.113C92.123 76.475 94.3747 77.1517 95.868 78.505C97.3847 79.835 98.143 81.55 98.143 83.65C98.143 85.0267 97.793 86.2983 97.093 87.465C96.393 88.6317 95.3197 89.5767 93.873 90.3C92.4497 91 90.6413 91.35 88.448 91.35Z" fill="#A020F0"/>
</svg>
